<svg width="100" height="88" viewBox="0 0 100 88" fill="none" xmlns="http://www.w3.org/2000/svg">
<g clip-path="url(#clip0_4055_2)">
<path d="M90.5375 4.39769C87.3189 3.69876 83.5961 4.15037 80.0772 5.45145C80.1094 3.59123 80.0987 1.76328 80.045 0.0105896H19.9334C19.8798 1.76328 19.8691 3.58048 19.9013 5.45145C16.3931 4.15037 12.6703 3.69876 9.45174 4.39769C4.6883 5.41919 1.4483 8.65575 0.343271 13.4837C-1.10507 19.7848 2.09201 27.0106 9.33372 33.8278C15.0413 39.1934 22.7014 43.6665 30.7906 46.4299C34.1487 51.0859 38.44 54.8493 43.8794 57.1289C43.0855 59.9891 40.3068 68.2687 33.5693 73.3332H66.4413C59.7039 68.2687 56.9359 59.9891 56.1313 57.1289C61.5706 54.8493 65.862 51.0966 69.22 46.4299C77.3093 43.6665 84.9587 39.1934 90.6769 33.8278C97.9186 27.0106 101.105 19.7848 99.6674 13.4837C98.5516 8.6665 95.3224 5.42994 90.5482 4.38693L90.5375 4.39769ZM14.1508 28.8493C8.90458 23.9138 6.29757 18.7525 7.15585 15.0106C7.66008 12.8063 8.86167 11.5697 10.9644 11.1181C13.7324 10.516 17.3264 11.4299 20.2982 13.2471C20.9741 21.1504 22.5512 29.3977 25.523 36.7203C21.2638 34.5375 17.3479 31.8708 14.1615 28.8601L14.1508 28.8493ZM85.8384 28.8493C82.652 31.8493 78.7362 34.5267 74.477 36.7095C77.4487 29.3869 79.0258 21.1396 79.7017 13.2364C82.6735 11.4299 86.2783 10.5052 89.0355 11.1074C91.1275 11.5697 92.3398 12.7955 92.8441 14.9998C93.7024 18.731 91.0846 23.9031 85.8491 28.8385L85.8384 28.8493Z" fill="#DF1E26"/>
<path d="M70.7328 78.2258H29.2672V88H70.7328V78.2258Z" fill="#DF1E26"/>
</g>
<defs>
<clipPath id="clip0_4055_2">
<rect width="100" height="88" fill="white"/>
</clipPath>
</defs>
</svg>
