<svg width="60" height="60" viewBox="0 0 60 60" fill="none" xmlns="http://www.w3.org/2000/svg">
<g clip-path="url(#clip0_4021_36)">
<path fill-rule="evenodd" clip-rule="evenodd" d="M30 0C46.56 0 60 13.44 60 30C60 46.56 46.56 60 30 60C13.44 60 0 46.56 0 30C0 13.44 13.44 0 30 0Z" fill="white"/>
<path fill-rule="evenodd" clip-rule="evenodd" d="M12 33H48C49.656 33 51 31.656 51 30C51 28.344 49.656 27 48 27H12C10.344 27 9 28.344 9 30C9 31.656 10.344 33 12 33Z" fill="#DF1E26"/>
<path fill-rule="evenodd" clip-rule="evenodd" d="M21 21H39C40.656 21 42 19.656 42 18C42 16.344 40.656 15 39 15H21C19.344 15 18 16.344 18 18C18 19.656 19.344 21 21 21Z" fill="#DF1E26"/>
<path fill-rule="evenodd" clip-rule="evenodd" d="M21 45H39C40.656 45 42 43.656 42 42C42 40.344 40.656 39 39 39H21C19.344 39 18 40.344 18 42C18 43.656 19.344 45 21 45Z" fill="#DF1E26"/>
</g>
<defs>
<clipPath id="clip0_4021_36">
<rect width="60" height="60" fill="white"/>
</clipPath>
</defs>
</svg>
