<svg width="50" height="50" viewBox="0 0 50 50" fill="none" xmlns="http://www.w3.org/2000/svg">
<g clip-path="url(#clip0_4_1169)">
<path d="M25 50C38.8125 50 50 38.8125 50 25C50 11.1875 38.8125 0 25 0C11.1875 0 0 11.1875 0 25C0 38.8125 11.1875 50 25 50Z" fill="#A3151B"/>
<path fill-rule="evenodd" clip-rule="evenodd" d="M35.325 18.575C36.45 17.5125 36.5125 15.75 35.45 14.625C34.3875 13.5 32.625 13.4375 31.5 14.5C31.5 14.5 31.4125 14.5875 31.375 14.625L24.975 21.0375L18.575 14.6375C17.525 13.5125 15.75 13.45 14.625 14.5125C13.5 15.5625 13.4375 17.3375 14.5 18.4625C14.5375 18.5125 14.5875 18.55 14.625 18.5875L21.0375 24.9875L14.6375 31.3875C13.5375 32.4625 13.5125 34.2375 14.5875 35.3375C15.6375 36.4125 17.3375 36.4625 18.45 35.4625L18.575 35.3375L24.975 28.9375L31.375 35.3375C32.4125 36.475 34.1875 36.55 35.325 35.5125C36.45 34.4875 36.5375 32.75 35.5375 31.6125C35.5125 31.5875 35.475 31.55 35.45 31.525C35.425 31.5 35.3625 31.4375 35.325 31.4L28.925 25L35.325 18.6V18.575Z" fill="white"/>
</g>
<defs>
<clipPath id="clip0_4_1169">
<rect width="50" height="50" fill="white"/>
</clipPath>
</defs>
</svg>
