<svg width="160" height="70" viewBox="0 0 160 70" fill="none" xmlns="http://www.w3.org/2000/svg">
<g clip-path="url(#clip0_4015_139)">
<path d="M16.64 5.21001V32.82C16.64 33.94 16.51 34.94 16.26 35.83C16.01 36.72 15.57 37.5 14.95 38.15C14.33 38.8 13.47 39.3 12.39 39.65C11.31 40 9.96001 40.18 8.34001 40.18H5.17001V35.02H7.62001C8.76001 35.02 9.57001 34.78 10.03 34.3C10.49 33.83 10.72 33.11 10.72 32.15V5.21001H16.64Z" fill="#DF1E26"/>
<path d="M37.9 27.38V31.34C37.9 32.55 37.71 33.7 37.35 34.78C36.98 35.87 36.44 36.81 35.73 37.6C35.01 38.4 34.09 39.03 32.98 39.49C31.87 39.95 30.58 40.18 29.11 40.18C27.56 40.18 26.21 39.95 25.08 39.49C23.95 39.03 23.01 38.4 22.26 37.6C21.52 36.81 20.96 35.87 20.59 34.78C20.23 33.7 20.04 32.56 20.04 31.34V13.57C20.04 12.36 20.23 11.21 20.59 10.13C20.96 9.05 21.52 8.11 22.26 7.31C23.01 6.52 23.95 5.89 25.08 5.43C26.21 4.96 27.55 4.73 29.11 4.73C30.58 4.73 31.87 4.99 32.98 5.5C34.09 6.01 35.01 6.69 35.73 7.55C36.44 8.41 36.98 9.41 37.35 10.56C37.71 11.71 37.9 12.92 37.9 14.19V16.72H31.98V14.05C31.98 12.58 31.69 11.52 31.12 10.87C30.54 10.22 29.88 9.89 29.11 9.89C27.9 9.89 27.08 10.2 26.63 10.82C26.18 11.44 25.96 12.41 25.96 13.71V31.2C25.96 32.51 26.18 33.47 26.63 34.09C27.08 34.71 27.9 35.02 29.11 35.02C30.19 35.02 30.94 34.72 31.36 34.12C31.77 33.51 31.98 32.65 31.98 31.53V27.38H37.9Z" fill="#DF1E26"/>
<path d="M159.68 28.28L156.23 28.66C156.19 28.21 156.11 27.84 155.98 27.54C155.85 27.23 155.7 27 155.51 26.82C155.32 26.64 155.13 26.52 154.91 26.44C154.7 26.36 154.49 26.32 154.3 26.32C153.71 26.32 153.26 26.5 152.95 26.86C152.64 27.23 152.48 27.74 152.48 28.4C152.48 29.01 152.66 29.56 153.02 30.07C153.38 30.58 153.84 31.09 154.38 31.6C154.93 32.11 155.53 32.62 156.17 33.14C156.81 33.65 157.41 34.22 157.96 34.85C158.5 35.48 158.96 36.17 159.32 36.92C159.68 37.67 159.86 38.53 159.86 39.48C159.86 40.36 159.72 41.14 159.44 41.81C159.15 42.49 158.76 43.05 158.27 43.51C157.77 43.97 157.16 44.32 156.45 44.55C155.74 44.79 154.96 44.9 154.12 44.9C153.28 44.9 152.53 44.75 151.87 44.44C151.2 44.12 150.64 43.7 150.18 43.16C149.72 42.62 149.37 42 149.11 41.3C148.86 40.59 148.71 39.84 148.67 39.04L152.13 38.54C152.21 39.62 152.44 40.42 152.83 40.95C153.22 41.47 153.71 41.74 154.3 41.74C154.92 41.74 155.43 41.57 155.82 41.24C156.21 40.91 156.41 40.43 156.41 39.8C156.41 39.1 156.23 38.48 155.86 37.93C155.5 37.38 155.05 36.85 154.5 36.34C153.95 35.84 153.36 35.33 152.72 34.82C152.07 34.31 151.48 33.76 150.93 33.15C150.38 32.54 149.93 31.86 149.57 31.1C149.2 30.33 149.02 29.45 149.02 28.43C149.02 26.73 149.51 25.43 150.49 24.52C151.46 23.61 152.85 23.15 154.65 23.15C155.39 23.15 156.05 23.28 156.64 23.53C157.22 23.79 157.73 24.14 158.15 24.6C158.57 25.06 158.91 25.61 159.17 26.23C159.44 26.86 159.61 27.54 159.68 28.28Z" fill="white"/>
<path d="M155.24 67.13C156.24 67.13 156.86 66.61 156.86 65.19V61.6C156.86 60.17 156.24 59.63 155.24 59.63C154.24 59.63 153.62 60.17 153.62 61.6V65.19C153.62 66.61 154.25 67.13 155.24 67.13ZM156.98 54.42C156.98 52.99 156.35 52.45 155.36 52.45C154.25 52.45 153.62 52.99 153.62 54.9V58.55C154.16 57.41 155.13 56.78 156.52 56.78C158.83 56.78 160 58.4 160 61.34V64.99C160 68.18 158.32 70 155.24 70C152.16 70 150.49 68.18 150.49 64.99V54.79C150.49 51.42 152.02 49.6 155.27 49.6C158.35 49.6 159.94 51.42 159.94 54.61V55.13H156.98V54.42Z" fill="white"/>
<path d="M135.59 44.61L139.48 23.45H143.99L147.89 44.61H144.37L143.73 39.92H139.74L139.1 44.61H135.59ZM141.77 27.67H141.71L140.27 36.75H143.2L141.77 27.67Z" fill="white"/>
<path d="M142.46 49.6C145.53 49.6 147.13 51.42 147.13 54.61C147.13 60.88 140.89 63.22 140.89 66.5C140.89 66.64 140.89 66.78 140.92 66.92H146.84V69.77H137.79V67.32C137.79 61.45 144 60.48 144 54.73C144 52.93 143.37 52.45 142.37 52.45C141.37 52.45 140.75 52.99 140.75 54.41V56.55H137.79V54.61C137.79 51.42 139.38 49.6 142.46 49.6Z" fill="white"/>
<path d="M134.26 37.05V39.48C134.26 40.22 134.14 40.92 133.92 41.59C133.7 42.25 133.36 42.83 132.92 43.32C132.48 43.81 131.92 44.19 131.24 44.48C130.56 44.76 129.76 44.9 128.87 44.9C127.91 44.9 127.08 44.76 126.39 44.48C125.7 44.19 125.12 43.81 124.66 43.32C124.2 42.83 123.86 42.25 123.64 41.59C123.41 40.92 123.3 40.22 123.3 39.48V28.57C123.3 27.83 123.41 27.13 123.64 26.47C123.86 25.8 124.2 25.22 124.66 24.74C125.12 24.25 125.7 23.86 126.39 23.58C127.08 23.29 127.91 23.15 128.87 23.15C129.76 23.15 130.56 23.31 131.24 23.62C131.92 23.93 132.48 24.36 132.92 24.88C133.36 25.41 133.69 26.02 133.92 26.73C134.14 27.43 134.26 28.17 134.26 28.95V30.51H130.62V28.87C130.62 27.97 130.45 27.32 130.1 26.92C129.74 26.52 129.34 26.32 128.87 26.32C128.12 26.32 127.62 26.51 127.34 26.89C127.07 27.27 126.93 27.86 126.93 28.66V39.39C126.93 40.19 127.07 40.78 127.34 41.16C127.62 41.54 128.12 41.74 128.87 41.74C129.53 41.74 129.99 41.55 130.24 41.18C130.5 40.81 130.62 40.28 130.62 39.6V37.05H134.26Z" fill="white"/>
<path d="M129.38 67.15C130.38 67.15 131.01 66.61 131.01 65.19V54.41C131.01 52.99 130.38 52.45 129.38 52.45C128.38 52.45 127.76 52.99 127.76 54.41V65.19C127.76 66.61 128.39 67.15 129.38 67.15ZM124.63 54.61C124.63 51.42 126.31 49.6 129.38 49.6C132.45 49.6 134.14 51.42 134.14 54.61V64.99C134.14 68.18 132.46 70 129.38 70C126.3 70 124.63 68.18 124.63 64.99V54.61Z" fill="white"/>
<path d="M120.21 18.3V21.46H114.91H110.87V0.300003H114.5V18.3H120.21Z" fill="white"/>
<path d="M111.99 54.61C111.99 51.42 113.58 49.6 116.66 49.6C119.74 49.6 121.33 51.42 121.33 54.61C121.33 60.88 115.09 63.22 115.09 66.5C115.09 66.64 115.09 66.78 115.12 66.92H121.04V69.77H111.99V67.32C111.99 61.45 118.19 60.48 118.19 54.73C118.19 52.93 117.57 52.45 116.57 52.45C115.57 52.45 114.95 52.99 114.95 54.41V56.55H111.99V54.61Z" fill="white"/>
<path d="M114.74 32.94C115.23 32.94 115.64 32.89 115.98 32.8C116.33 32.7 116.6 32.52 116.82 32.27C117.03 32.01 117.19 31.68 117.29 31.26C117.38 30.84 117.43 30.32 117.43 29.69C117.43 28.44 117.23 27.58 116.82 27.12C116.41 26.66 115.71 26.43 114.74 26.43H113.45V32.94H114.74ZM114.91 23.45C116.94 23.45 118.48 23.93 119.51 24.88C120.55 25.84 121.06 27.44 121.06 29.69C121.06 30.55 120.99 31.28 120.84 31.89C120.7 32.49 120.5 33.01 120.26 33.43C120.01 33.85 119.74 34.19 119.44 34.44C119.14 34.69 118.83 34.89 118.52 35.03L121.59 44.61H117.9L115.32 35.85C115.09 35.89 114.8 35.91 114.46 35.92C114.12 35.93 113.78 35.93 113.45 35.93V44.61H109.82V23.45H114.91Z" fill="white"/>
<path d="M109.24 18.3V21.46H99.89V0.300003H103.53V18.3H109.24Z" fill="white"/>
<path d="M102.06 27.67H102L100.56 36.75H103.49L102.06 27.67ZM104.28 23.45L108.18 44.61H104.66L104.02 39.92H100.03L99.39 44.61H95.88L99.77 23.45H104.28Z" fill="white"/>
<path d="M92.21 4.52H92.16L90.72 13.6H93.65L92.21 4.52ZM94.44 0.300003L98.33 21.46H94.82L94.17 16.77H90.19L89.55 21.46H86.03L89.93 0.300003H94.44Z" fill="white"/>
<path d="M86.02 44.61L82.74 28.08H82.69V44.61H79.52V23.45H84.3L86.87 35.82H86.93L89.51 23.45H89.55H94.28V44.61H91.12V28.08H91.06L87.78 44.61H86.02Z" fill="white"/>
<path d="M84.7 13.9V16.33C84.7 17.07 84.59 17.78 84.37 18.44C84.14 19.11 83.81 19.68 83.37 20.17C82.93 20.66 82.37 21.04 81.69 21.33C81 21.61 80.21 21.75 79.31 21.75C78.36 21.75 77.53 21.61 76.84 21.33C76.15 21.04 75.57 20.66 75.11 20.17C74.65 19.68 74.31 19.11 74.09 18.44C73.86 17.78 73.75 17.07 73.75 16.33V5.43C73.75 4.68 73.86 3.98 74.09 3.32C74.31 2.65 74.65 2.08 75.11 1.59C75.57 1.1 76.15 0.71 76.84 0.43C77.53 0.15 78.36 0 79.31 0C80.21 0 81 0.16 81.69 0.47C82.37 0.79 82.93 1.21 83.37 1.73C83.81 2.26 84.14 2.88 84.37 3.58C84.59 4.28 84.7 5.02 84.7 5.81V7.36H81.07V5.72C81.07 4.82 80.89 4.17 80.54 3.77C80.19 3.37 79.78 3.17 79.31 3.17C78.57 3.17 78.06 3.36 77.79 3.74C77.52 4.12 77.38 4.71 77.38 5.52V16.24C77.38 17.04 77.52 17.63 77.79 18.02C78.06 18.4 78.57 18.59 79.31 18.59C79.98 18.59 80.44 18.4 80.69 18.03C80.94 17.66 81.07 17.13 81.07 16.45V13.9H84.7Z" fill="white"/>
<path d="M71.85 18.29V21.46H61.71V0.300003H71.43V3.46H65.34V8.91H70.03V12.08H65.34V18.29H71.85Z" fill="white"/>
<path d="M71.53 41.44V44.61H61.4H61.39V23.45H71.12V26.61H65.03V32.06H69.71V35.23H65.03V41.44H71.53Z" fill="white"/>
<path d="M47.95 23.45H53.34C55.24 23.45 56.67 23.97 57.64 25C58.6 26.04 59.09 27.65 59.09 29.84V38.22C59.09 40.41 58.6 42.02 57.64 43.06C56.67 44.09 55.24 44.61 53.34 44.61H47.95V23.45ZM52.84 41.62C53.82 41.62 54.5 41.4 54.88 40.97C55.26 40.55 55.45 39.77 55.45 38.66V29.4C55.45 28.28 55.26 27.51 54.88 27.08C54.5 26.65 53.82 26.44 52.84 26.44H51.59V41.62H52.84Z" fill="white"/>
<path d="M52.88 9.79C53.36 9.79 53.78 9.74 54.12 9.65C54.46 9.55 54.74 9.37 54.96 9.12C55.17 8.86 55.33 8.53 55.42 8.11C55.52 7.69 55.57 7.17 55.57 6.54C55.57 5.29 55.37 4.43 54.96 3.97C54.55 3.51 53.85 3.28 52.88 3.28H51.59V9.79H52.88ZM53.05 0.300003C55.08 0.300003 56.61 0.780003 57.65 1.73C58.69 2.69 59.2 4.29 59.2 6.54C59.2 7.4 59.13 8.13 58.98 8.74C58.83 9.34 58.64 9.86 58.4 10.28C58.15 10.7 57.88 11.04 57.58 11.29C57.27 11.54 56.97 11.74 56.65 11.88L59.73 21.46H56.04L53.46 12.7C53.23 12.74 52.94 12.76 52.6 12.77C52.26 12.78 51.92 12.78 51.59 12.78V21.46H47.95V0.300003H53.05Z" fill="white"/>
<path d="M44.28 0.300003V44.61L22.14 66.77V44.61H0V0.300003H44.28ZM37.9 31.34V27.38H31.98V31.53C31.98 32.65 31.77 33.51 31.36 34.12C30.94 34.72 30.19 35.02 29.11 35.02C27.9 35.02 27.08 34.71 26.63 34.09C26.18 33.47 25.96 32.51 25.96 31.2V13.71C25.96 12.41 26.18 11.44 26.63 10.82C27.08 10.2 27.9 9.89 29.11 9.89C29.88 9.89 30.54 10.22 31.12 10.87C31.69 11.52 31.98 12.58 31.98 14.05V16.72H37.9V14.19C37.9 12.92 37.71 11.71 37.35 10.56C36.98 9.41 36.44 8.41 35.73 7.55C35.01 6.69 34.09 6.01 32.98 5.5C31.87 4.99 30.58 4.73 29.11 4.73C27.55 4.73 26.21 4.96 25.08 5.43C23.95 5.89 23.01 6.52 22.26 7.31C21.52 8.11 20.96 9.05 20.59 10.13C20.23 11.21 20.04 12.36 20.04 13.57V31.34C20.04 32.56 20.23 33.7 20.59 34.78C20.96 35.87 21.52 36.81 22.26 37.6C23.01 38.4 23.95 39.03 25.08 39.49C26.21 39.95 27.56 40.18 29.11 40.18C30.58 40.18 31.87 39.95 32.98 39.49C34.09 39.03 35.01 38.4 35.73 37.6C36.44 36.81 36.98 35.87 37.35 34.78C37.71 33.7 37.9 32.55 37.9 31.34ZM16.64 32.82V5.21H10.72V32.15C10.72 33.11 10.49 33.83 10.03 34.3C9.57 34.78 8.76 35.02 7.62 35.02H5.17V40.18H8.34C9.96 40.18 11.31 40 12.39 39.65C13.47 39.3 14.33 38.8 14.95 38.15C15.57 37.5 16.01 36.72 16.26 35.83C16.51 34.94 16.64 33.94 16.64 32.82Z" fill="white"/>
</g>
<defs>
<clipPath id="clip0_4015_139">
<rect width="160" height="70" fill="white"/>
</clipPath>
</defs>
</svg>
