<svg width="125" height="70" viewBox="0 0 125 70" fill="none" xmlns="http://www.w3.org/2000/svg">
<g clip-path="url(#clip0_4014_11)">
<path d="M19.4863 33.7868L18.8161 33.6039V34.9711L17.4755 34.6052V35.2889L18.8161 35.6547V38.0523L19.4863 38.2352V35.8377L20.8269 36.2132V35.5296L19.4863 35.1541V33.7868Z" fill="white"/>
<path d="M27.7238 38.3989C27.7238 38.3411 27.7432 38.293 27.7821 38.2448C28.1221 37.879 29.6861 37.8597 30.8226 37.879C31.7551 37.8886 32.5323 37.8886 33.6008 37.8886C34.3099 37.8886 35.1648 37.8886 36.311 37.8886H36.4664V37.773C36.3693 32.3618 36.3402 32.227 36.3207 32.1981V32.0922L36.311 11.3329C35.359 11.381 33.3094 11.1596 32.9208 11.1018C19.8457 8.82943 36.0779 18.901 18.1264 11.3521C7.04267 7.49105 14.1048 13.8267 11.1808 13.8267C8.09179 13.8267 7.31467 10.7937 0.106864 11.3425V31.2256L0.0874356 31.3219L-0.00970459 38.0619L0.126292 38.0426C4.09933 37.5034 6.43069 38.7166 8.13064 39.6025C9.30604 40.2187 10.2386 40.7001 11.2294 40.3535C11.3071 40.3246 12.1522 39.7758 12.2688 39.2847C12.3562 38.9381 12.3465 38.5626 12.3368 38.2833C12.3368 38.1774 12.3368 38.0426 12.3368 37.9752C13.4442 37.8597 14.3573 37.9752 15.0276 38.0715C15.6493 38.1678 17.7864 38.6781 18.5635 38.9477C19.2532 39.1884 20.0303 39.458 20.5646 39.6506L21.128 39.8528C22.9931 40.5076 24.3142 40.7194 25.2467 40.7194C26.5484 40.7194 27.0924 40.3054 27.345 40.1224C27.7044 39.8528 27.7238 39.0536 27.7238 38.9574V38.4278V38.3989ZM19.2435 13.9711L19.632 12.8349L19.9429 14.1444L21.1766 14.2985L20.1566 14.9051L20.5354 16.1857L19.6029 15.2132L18.4566 15.7524L18.9618 14.5681L18.0195 13.6437L19.2532 13.9615L19.2435 13.9711ZM27.481 38.4085V38.9285C27.481 39.1403 27.4324 39.7276 27.1993 39.901C26.801 40.2091 25.577 41.1334 21.2057 39.6025L20.6423 39.4003C20.108 39.2077 19.3309 38.9381 18.6412 38.6974C17.835 38.4182 15.7076 37.9175 15.0567 37.8116C14.3573 37.7056 13.4151 37.5997 12.2494 37.7153C12.0745 37.7345 12.0843 37.9271 12.094 38.2641C12.094 38.5241 12.1134 38.89 12.0357 39.1981C11.9385 39.564 11.2391 40.055 11.142 40.1032C10.2483 40.4113 9.40318 39.978 8.22779 39.3618C6.51812 38.4759 4.18675 37.2531 0.213718 37.7634L0.301144 31.3026C0.466282 26.4305 2.19538 22.0206 4.71131 20.2586C6.08099 19.3054 7.63523 19.1128 9.2089 19.7098C11.0157 20.3934 11.7928 20.1912 11.9871 20.0179V20.8459C16.883 17.3411 20.4383 20.2393 23.0999 22.3961C25.4119 24.2737 26.4124 24.9092 27.5975 23.8597V25.978C27.2284 26.1128 26.869 26.1802 26.5096 26.1802C24.8679 26.1802 23.2942 24.8996 21.944 23.8019C19.0686 21.4622 16.3487 19.2476 11.9774 23.1953V21.9051C11.8025 21.934 11.618 21.9532 11.4237 21.9629C11.4043 21.9629 11.3751 21.9629 11.3557 21.9629C11.2683 21.9629 11.1808 21.9629 11.0934 21.9629C11.0546 21.9629 11.0254 21.9629 10.9866 21.9629C10.8991 21.9629 10.8214 21.9532 10.734 21.9436C10.6854 21.9436 10.6369 21.934 10.5883 21.9243C10.5106 21.9147 10.4232 21.9051 10.3454 21.8858C10.2872 21.8762 10.2289 21.8666 10.1706 21.8569C10.0929 21.8377 10.0152 21.8281 9.93745 21.8088C9.86945 21.7895 9.79174 21.7703 9.71403 21.751C9.64603 21.7318 9.56832 21.7125 9.50032 21.6933C9.40318 21.6644 9.31575 21.6355 9.21861 21.6066C9.16033 21.5873 9.10205 21.5681 9.04376 21.5488C8.88834 21.5007 8.7232 21.4429 8.56777 21.3755C7.55752 20.9904 6.6444 21.0963 5.77014 21.7125C3.70105 23.1568 2.25366 27.1334 2.12738 31.4567C2.12738 31.4567 2.14681 31.4567 2.15652 31.4567C2.27309 31.4663 2.37994 31.4856 2.4868 31.4952C2.56451 31.5048 2.63251 31.5144 2.71022 31.5241C2.79765 31.5337 2.87536 31.553 2.96279 31.5626C3.0405 31.5722 3.1085 31.5915 3.18621 31.6011C3.26392 31.6107 3.34163 31.63 3.41934 31.6396C3.43877 31.6396 3.44849 31.6396 3.46791 31.6396C3.69134 27.6823 4.94445 24.3122 6.73183 23.0798C7.5478 22.5117 8.44149 22.4347 9.45175 22.8487C10.5591 23.2916 11.3848 23.4168 12.0163 23.2146V24.6974C11.4334 24.8803 10.7243 24.8129 9.88888 24.4856C8.90777 24.11 8.11122 24.1485 7.45066 24.6107C6.11013 25.5543 5.24558 28.2696 5.03187 31.9766H5.0513C5.10958 31.9959 5.17758 32.0055 5.23587 32.0248C5.29415 32.044 5.35243 32.0536 5.42043 32.0729C5.47872 32.0922 5.537 32.1018 5.59529 32.121C5.65357 32.1403 5.71185 32.1596 5.77014 32.1692C5.82842 32.1884 5.87699 32.1981 5.93528 32.2173C6.01299 32.2366 6.08099 32.2655 6.1587 32.2847C6.24612 32.3136 6.32384 32.3425 6.40155 32.3618C6.45012 32.381 6.5084 32.4003 6.55697 32.4099C6.60554 32.4292 6.66383 32.4484 6.7124 32.4677C6.76097 32.4869 6.80954 32.4966 6.84839 32.5158C6.89696 32.5351 6.94553 32.5543 7.00382 32.5736C7.05239 32.5928 7.09124 32.6025 7.13981 32.6217C7.18838 32.641 7.23695 32.6602 7.28552 32.6795C7.32438 32.6988 7.36324 32.7084 7.40209 32.7276C7.45066 32.7469 7.49923 32.7662 7.5478 32.7854C7.58666 32.8047 7.62551 32.8143 7.66437 32.8336C7.71294 32.8528 7.76151 32.8721 7.80037 32.8913C7.82951 32.901 7.86837 32.9202 7.89751 32.9298C7.94608 32.9491 7.99465 32.9684 8.04322 32.9876C8.07236 32.9972 8.1015 33.0069 8.12093 33.0261C8.1695 33.0454 8.22779 33.0646 8.27635 33.0935C8.27635 33.0935 8.29578 33.0935 8.29578 33.1032C8.57749 33.2187 8.83005 33.3342 9.06319 33.4305C9.08262 33.4305 9.09233 33.4402 9.11176 33.4498C9.16033 33.469 9.19919 33.4883 9.24776 33.5076C9.26719 33.5076 9.28661 33.5268 9.30604 33.5364C9.3449 33.5557 9.38375 33.5653 9.41289 33.575C9.43232 33.575 9.45175 33.5942 9.48089 33.6038C9.51004 33.6135 9.54889 33.6327 9.57803 33.6424C9.59746 33.6424 9.6266 33.6616 9.64603 33.6616C9.67517 33.6712 9.70432 33.6809 9.74317 33.6905C9.7626 33.6905 9.78203 33.7001 9.81117 33.7098C9.84031 33.7098 9.86945 33.729 9.8986 33.7386C9.91802 33.7386 9.93745 33.7483 9.95688 33.7579C9.98602 33.7579 10.0152 33.7675 10.0443 33.7772C10.0637 33.7772 10.0832 33.7772 10.1026 33.7868C10.1317 33.7868 10.1609 33.7868 10.1997 33.7964C10.2192 33.7964 10.2289 33.7964 10.2483 33.7964C10.2969 33.7964 10.3357 33.7964 10.3843 33.806C10.3843 33.806 10.4037 33.806 10.4134 33.806C10.4523 33.806 10.4912 33.806 10.53 33.806C10.5591 33.806 10.5883 33.806 10.6077 33.806C10.6271 33.806 10.6466 33.806 10.6757 33.7964C10.7146 33.7964 10.7534 33.7868 10.7923 33.7772C10.7923 33.7772 10.8117 33.7772 10.8214 33.7772C11.1128 33.6905 11.3848 33.4979 11.6665 33.1609C11.6665 33.1609 11.6665 33.1513 11.6763 33.1513C11.7345 33.0839 11.7831 33.0165 11.8414 32.9395C11.8997 32.8528 11.9677 32.7662 12.026 32.6699L12.1717 31.7648C12.502 29.6176 26.2473 36.8968 27.6267 33.3535C28.0152 32.3425 29.0935 32.0055 31.4929 32.458C31.5123 32.458 31.5317 32.458 31.5609 32.4677C31.6289 32.4869 31.7066 32.4966 31.7843 32.5158H31.8037C31.7843 29.8294 30.9683 27.2393 29.4238 25.1499C28.8992 24.4374 28.297 23.8019 27.6364 23.2338V22.1554C26.4999 23.1953 25.5187 22.5983 23.2748 20.8267C20.6229 18.7276 17.0481 15.8968 12.0163 19.3728V17.5818C18.1167 14.6066 21.5166 17.5337 23.7994 19.4979C25.7422 21.1829 26.3833 21.6162 27.6461 20.249V21V20.9807C28.8798 21.8088 29.9678 22.8487 30.8809 24.0812C32.678 26.5076 33.6202 29.5309 33.6008 32.6506C33.9408 32.6506 34.3391 32.6121 34.8053 32.564C34.9705 29.2132 34.0282 25.9395 32.1048 23.3397C30.91 21.7125 29.3849 20.4223 27.6558 19.5172V17.8803C32.9305 20.3934 36.3402 26.2091 35.8739 32.4292C35.971 32.4099 36.0585 32.4003 36.1556 32.381C36.175 32.7758 36.2722 36.1362 36.2722 37.5901C35.1745 37.5901 34.3391 37.5901 33.6494 37.5901C32.5711 37.5901 31.794 37.5901 30.8712 37.5805C28.9381 37.5516 27.9667 37.6864 27.6558 38.0234C27.5684 38.1197 27.5198 38.2256 27.5295 38.3411L27.481 38.4085ZM21.5943 30.6768C21.2446 30.3205 20.856 30.0316 20.3897 30.2049C20.5743 30.6864 20.4189 31.1774 20.1663 31.5433C19.9332 30.8789 19.6806 30.5323 19.2629 30.5516C19.3309 30.9945 18.9423 31.293 18.3984 31.4663C18.4858 30.9271 18.5052 30.3879 18.0875 30.1183C17.8932 30.5227 17.3007 30.5901 16.8053 30.5131C17.019 30.1087 17.3007 29.7043 17.1355 29.2806C16.7373 29.4539 16.203 29.3191 15.7853 28.8955C16.1641 28.6933 16.6693 28.5777 16.6887 28.0385C16.1739 27.9037 15.7756 27.5186 15.6104 27.0468C16.135 27.1334 16.5916 27.1238 16.8441 26.806C16.4264 26.3824 16.3098 25.9106 16.3584 25.4773C16.7081 25.7565 17.1161 26.0743 17.6212 25.9587C17.4561 25.4869 17.5921 24.9862 17.7961 24.6107C17.9418 25.044 18.1555 25.6314 18.7481 25.7373C18.8549 25.2751 19.1658 24.8514 19.5349 24.6781C19.4378 25.0922 19.5543 25.5928 19.9623 26.0358C20.1663 25.6795 20.5452 25.4773 21.1474 25.6314C20.7977 25.9684 20.5743 26.392 20.856 26.8927C21.2349 26.7868 21.7303 26.8927 22.1577 27.249C21.7011 27.3741 21.2251 27.5956 21.2737 28.1541C21.8468 28.2118 22.1771 28.5585 22.3131 29.088C21.7206 28.8377 21.196 28.7992 21.0989 29.3865C21.5068 29.7139 21.672 30.1761 21.5846 30.6671L21.5943 30.6768Z" fill="white"/>
<path d="M100.336 24.5433H95.0128V40.0743H97.1402V35.0482H100.414C102.493 35.0482 104.037 34.6052 105.038 33.7098C106.038 32.8143 106.534 31.4567 106.534 29.6272C106.534 27.7978 106.058 26.5268 105.096 25.7373C104.134 24.9477 102.551 24.553 100.336 24.553V24.5433ZM103.445 32.3425C102.823 32.901 101.783 33.1802 100.336 33.1802H97.1402V26.4402H100.336C101.783 26.4402 102.823 26.6809 103.445 27.1719C104.066 27.663 104.387 28.4718 104.387 29.608C104.387 30.8597 104.076 31.7744 103.445 32.3329V32.3425Z" fill="white"/>
<path d="M111.206 38.0908V33.055H118.326V31.2063H111.206V26.4498H119.249V24.5433H109.079V40.0647H119.473V38.0908H111.206Z" fill="white"/>
<path d="M106.718 14.9532C101.881 14.9532 97.4899 16.8404 94.226 19.8831C88.5239 8.12655 76.4105 0 62.3737 0C52.582 0 43.7228 3.94773 37.331 10.3315C37.331 10.3315 37.4184 34.0949 37.4864 37.7538V38.89H36.3207C35.7476 38.89 35.2522 38.89 34.8053 38.89H32.7945C32.0951 38.89 31.5026 38.89 30.8129 38.8803C30.6672 38.8803 30.5117 38.8803 30.3563 38.8803C29.5112 38.8803 29.0158 38.9188 28.7341 38.9574C28.7341 39.3906 28.6369 40.3728 27.9667 40.8831C27.8792 40.9505 27.7627 41.0371 27.6072 41.1334C30.5312 57.5406 44.9856 70 62.3737 70C77.5082 70 90.4084 60.564 95.4402 47.3054C98.5487 49.7318 102.463 51.1953 106.718 51.1953C116.801 51.1953 125 43.0688 125 33.0743C125 23.0798 116.801 14.9532 106.718 14.9532ZM57.3613 38.293C57.3613 43.4154 56.2345 47.0743 53.9808 49.2696C51.7271 51.4649 47.9193 52.5626 42.5571 52.5626C41.3914 52.5626 40.2937 52.5241 39.2641 52.447C38.2344 52.37 37.1561 52.216 36.0293 51.9849V42.1637C36.651 42.2792 37.3504 42.3659 38.1275 42.4237C38.9046 42.4814 39.8372 42.5103 40.9252 42.5103C43.2177 42.5103 44.7331 42.1733 45.4713 41.4993C46.2096 40.8253 46.5787 39.4869 46.5787 37.4842V15.7043H57.3613V38.293ZM88.0673 50.3095C85.9302 51.1568 83.9971 51.7442 82.268 52.0715C80.5389 52.3989 78.7224 52.5626 76.8185 52.5626C73.3214 52.5626 70.5529 52.1871 68.513 51.436C66.473 50.685 64.8508 49.4814 63.6462 47.8253C62.636 46.3618 61.8783 44.4746 61.3732 42.1637C60.868 39.8528 60.6155 37.0605 60.6155 33.7868C60.6155 27.3549 62.0532 22.6369 64.9285 19.6327C67.8038 16.6286 72.3889 15.1265 78.6836 15.1265C80.4709 15.1265 82.064 15.1651 83.4628 15.2421C84.8617 15.3191 86.1245 15.4539 87.2513 15.6465V25.0633C86.0079 24.9862 84.7062 24.9285 83.3463 24.89C81.9863 24.8514 80.4709 24.8322 78.8001 24.8322C75.9636 24.8322 74.0985 25.458 73.2048 26.7098C72.3112 27.9615 71.8643 30.3205 71.8643 33.7868C71.8643 37.0605 72.282 39.3329 73.1174 40.6039C73.9528 41.8748 75.6528 42.5103 78.2173 42.5103C79.7715 42.5103 81.452 42.3563 83.2589 42.0481C85.0657 41.74 86.6685 41.3356 88.0673 40.8349V50.3095ZM106.718 50.868C96.8196 50.868 88.7667 42.8858 88.7667 33.0743C88.7667 23.2627 96.8196 15.2806 106.718 15.2806C116.617 15.2806 124.67 23.2627 124.67 33.0743C124.67 42.8858 116.617 50.868 106.718 50.868Z" fill="white"/>
</g>
<defs>
<clipPath id="clip0_4014_11">
<rect width="125" height="70" fill="white"/>
</clipPath>
</defs>
</svg>
