<svg width="440" height="193" viewBox="0 0 440 193" fill="none" xmlns="http://www.w3.org/2000/svg">
<g clip-path="url(#clip0_4015_118)">
<path d="M141.873 59.1683H131.89V0.799568H145.915C151.498 0.799568 155.705 2.123 158.565 4.76985C161.425 7.41671 162.828 11.8281 162.828 18.0317C162.828 20.4029 162.635 22.4156 162.223 24.0974C161.81 25.7793 161.288 27.1854 160.6 28.3434C159.94 29.5014 159.17 30.4389 158.345 31.1281C157.52 31.8174 156.668 32.3689 155.815 32.7549L164.258 59.1683H154.11L147.015 35.0157C146.383 35.126 145.585 35.1811 144.65 35.2087C143.715 35.2087 142.78 35.2639 141.873 35.2639V59.1958V59.1683ZM141.873 26.9924H145.42C146.768 26.9924 147.895 26.8546 148.858 26.5789C149.793 26.3031 150.563 25.8344 151.14 25.1176C151.718 24.4283 152.158 23.4909 152.433 22.3329C152.708 21.1749 152.845 19.7411 152.845 18.0041C152.845 14.5577 152.295 12.1866 151.14 10.9183C150.013 9.65 148.115 9.01585 145.42 9.01585H141.873V26.9649V26.9924Z" fill="#DF1E26"/>
<path d="M169.702 59.1683V0.799568H196.432V9.51214H179.685V24.5386H192.582V33.2511H179.685V50.373H197.56V59.0856H169.675L169.702 59.1683Z" fill="#DF1E26"/>
<path d="M222.942 20.2926V15.7709C222.942 13.2894 222.447 11.4973 221.485 10.3944C220.522 9.29157 219.395 8.74014 218.102 8.74014C216.067 8.74014 214.665 9.264 213.922 10.3117C213.18 11.3594 212.795 12.9861 212.795 15.1919V44.776C212.795 46.9817 213.18 48.6084 213.922 49.6561C214.665 50.7039 216.067 51.2277 218.102 51.2277C219.917 51.2277 221.182 50.7039 221.897 49.6837C222.585 48.6636 222.942 47.2023 222.942 45.3274V38.2967H232.925V44.9966C232.925 47.0369 232.622 48.9944 231.99 50.8141C231.357 52.6339 230.45 54.233 229.267 55.584C228.057 56.935 226.517 57.9827 224.647 58.7823C222.777 59.5819 220.577 59.9679 218.13 59.9679C215.49 59.9679 213.235 59.5819 211.31 58.7823C209.412 58.0103 207.817 56.935 206.552 55.584C205.287 54.233 204.352 52.6614 203.72 50.8141C203.087 48.9669 202.785 47.0369 202.785 44.9966V14.9437C202.785 12.9034 203.087 10.9459 203.72 9.12614C204.325 7.30643 205.287 5.70728 206.552 4.35628C207.817 3.00528 209.385 1.95757 211.31 1.158C213.207 0.385999 215.49 -0.0275726 218.13 -0.0275726C220.605 -0.0275726 222.777 0.41357 224.647 1.26828C226.517 2.123 228.085 3.281 229.267 4.74228C230.477 6.20357 231.385 7.88543 231.99 9.843C232.595 11.773 232.925 13.8409 232.925 15.9914V20.265H222.942V20.2926Z" fill="#DF1E26"/>
<path d="M246.262 59.1683H236.61L247.307 0.799568H259.71L270.435 59.1407H260.782L259.022 46.2097H248.077L246.317 59.1407L246.262 59.1683ZM249.48 37.4971H257.537L253.605 12.4347H253.44L249.507 37.4971H249.48Z" fill="#DF1E26"/>
<path d="M274.725 59.1683V0.799568H284.707V50.4281H300.41V59.1407H274.725V59.1683Z" fill="#DF1E26"/>
<path d="M304.893 59.1683V0.799568H314.875V50.4281H330.578V59.1407H304.893V59.1683Z" fill="#DF1E26"/>
<path d="M131.89 64.6274H146.713C151.91 64.6274 155.843 66.0612 158.51 68.901C161.178 71.7684 162.498 76.2074 162.498 82.2456V105.35C162.498 111.389 161.178 115.828 158.51 118.695C155.843 121.562 151.91 122.969 146.713 122.969H131.89V64.6274ZM141.873 114.725H145.338C148.033 114.725 149.903 114.146 150.948 112.933C151.993 111.747 152.515 109.624 152.515 106.564V81.0324C152.515 77.972 151.993 75.8214 150.948 74.6634C149.903 73.4779 148.033 72.8713 145.338 72.8713H141.873V114.725Z" fill="#DF1E26"/>
<path d="M168.85 122.996V64.655H195.58V73.3676H178.833V88.394H191.73V97.1066H178.833V114.228H196.708V122.941H168.823L168.85 122.996Z" fill="#DF1E26"/>
<path d="M259.27 64.6274V122.969H250.58V77.393H250.415L241.395 122.969H236.555L227.535 77.393H227.37V122.969H218.68V64.6274H231.798L238.893 98.7333H239.058L246.153 64.6274H259.27Z" fill="#DF1E26"/>
<path d="M273.322 122.996H263.67L274.395 64.655H286.797L297.523 122.996H287.87L286.11 110.065H275.165L273.405 122.996H273.322ZM276.54 101.325H284.597L280.665 76.2626H280.5L276.54 101.325Z" fill="#DF1E26"/>
<path d="M311.987 122.996H302.005V64.655H316.03C321.613 64.655 325.82 65.9784 328.68 68.6253C331.54 71.2721 332.943 75.6836 332.943 81.8871C332.943 84.2583 332.75 86.271 332.338 87.9529C331.925 89.6347 331.403 91.0408 330.715 92.1988C330.055 93.3568 329.285 94.2943 328.46 94.9836C327.635 95.6729 326.782 96.2243 325.93 96.6103L334.372 123.024H324.225L317.13 98.8711C316.498 98.9814 315.7 99.0366 314.765 99.0641C313.83 99.0641 312.895 99.1193 311.987 99.1193V123.051V122.996ZM311.987 90.8203H315.535C316.883 90.8203 318.01 90.6824 318.973 90.4067C319.908 90.131 320.678 89.6623 321.255 88.9454C321.833 88.2561 322.273 87.3187 322.548 86.1607C322.823 85.0027 322.96 83.569 322.96 81.832C322.96 78.3856 322.41 76.0144 321.255 74.7461C320.128 73.4779 318.23 72.8437 315.535 72.8437H311.987V90.7927V90.8203Z" fill="#DF1E26"/>
<path d="M359.205 84.1204V79.5987C359.205 77.1173 358.71 75.3252 357.747 74.2223C356.785 73.1194 355.657 72.568 354.365 72.568C352.33 72.568 350.927 73.0919 350.185 74.1396C349.442 75.1873 349.057 76.814 349.057 79.0197V108.604C349.057 110.81 349.442 112.436 350.185 113.484C350.927 114.532 352.33 115.056 354.365 115.056C356.18 115.056 357.445 114.532 358.16 113.512C358.848 112.491 359.205 111.03 359.205 109.155V102.125H369.187V108.824C369.187 110.865 368.885 112.822 368.253 114.642C367.648 116.462 366.713 118.061 365.503 119.412C364.293 120.763 362.752 121.811 360.882 122.61C359.012 123.41 356.84 123.796 354.365 123.796C351.725 123.796 349.47 123.41 347.545 122.61C345.647 121.838 344.052 120.763 342.787 119.412C341.522 118.061 340.587 116.489 339.955 114.642C339.35 112.822 339.02 110.865 339.02 108.824V78.7716C339.02 76.7313 339.322 74.7737 339.955 72.954C340.56 71.1343 341.522 69.5352 342.787 68.1842C344.052 66.8332 345.62 65.7579 347.545 64.9859C349.442 64.2139 351.725 63.8003 354.365 63.8003C356.84 63.8003 359.012 64.2414 360.882 65.0962C362.752 65.9509 364.32 67.1089 365.503 68.5702C366.713 70.0314 367.62 71.7133 368.253 73.6709C368.858 75.6009 369.187 77.6687 369.187 79.8193V84.0929H359.205V84.1204Z" fill="#DF1E26"/>
<path d="M382.525 122.996H372.872L383.598 64.655H396L406.725 122.996H397.073L395.313 110.065H384.368L382.608 122.996H382.525ZM385.743 101.325H393.8L389.84 76.2626H389.675L385.743 101.325Z" fill="#DF1E26"/>
<path d="M429.632 79.0197C429.522 77.779 429.302 76.7313 428.945 75.9042C428.587 75.077 428.175 74.4153 427.652 73.919C427.13 73.4227 426.608 73.0919 426.003 72.8713C425.425 72.6507 424.848 72.5404 424.325 72.5404C422.703 72.5404 421.492 73.0367 420.612 74.0293C419.76 75.0219 419.32 76.4556 419.32 78.2753C419.32 79.9571 419.815 81.4736 420.805 82.8797C421.795 84.2859 423.06 85.692 424.545 87.0706C426.058 88.4767 427.68 89.8829 429.467 91.3166C431.227 92.7503 432.878 94.3219 434.39 96.0589C435.903 97.7959 437.14 99.6983 438.13 101.766C439.12 103.834 439.615 106.205 439.615 108.852C439.615 111.278 439.23 113.429 438.46 115.276C437.69 117.123 436.618 118.695 435.243 119.963C433.868 121.232 432.217 122.197 430.237 122.831C428.285 123.492 426.14 123.796 423.83 123.796C421.52 123.796 419.458 123.355 417.615 122.5C415.8 121.645 414.232 120.46 412.995 118.971C411.73 117.482 410.768 115.772 410.053 113.842C409.365 111.912 408.952 109.817 408.842 107.611L418.358 106.233C418.578 109.21 419.21 111.416 420.283 112.85C421.355 114.311 422.702 115.028 424.297 115.028C426.002 115.028 427.405 114.559 428.477 113.649C429.55 112.74 430.1 111.416 430.1 109.679C430.1 107.749 429.605 106.012 428.615 104.496C427.625 102.979 426.36 101.546 424.875 100.139C423.363 98.7333 421.74 97.3547 419.953 95.9486C418.193 94.5424 416.542 93.026 415.03 91.3442C413.517 89.6623 412.28 87.7874 411.29 85.692C410.3 83.5966 409.805 81.1427 409.805 78.3304C409.805 73.6433 411.152 70.059 413.82 67.55C416.515 65.041 420.31 63.8003 425.26 63.8003C427.295 63.8003 429.138 64.1587 430.733 64.848C432.355 65.5373 433.73 66.5299 434.885 67.7982C436.04 69.0664 436.975 70.5553 437.717 72.2923C438.432 74.0293 438.9 75.9042 439.12 77.9444L429.605 78.9922L429.632 79.0197Z" fill="#DF1E26"/>
<path d="M0 0.799568V122.969H60.885V184.067L121.77 122.969V0.799568H0ZM45.76 90.4894C45.76 93.5498 45.4025 96.3346 44.715 98.7884C44.0275 101.242 42.8175 103.365 41.1125 105.185C39.4075 106.977 37.07 108.356 34.1 109.321C31.13 110.286 27.39 110.782 22.935 110.782H14.245V96.5551H20.9825C24.145 96.5551 26.345 95.8934 27.61 94.57C28.875 93.2466 29.5075 91.289 29.5075 88.6421V14.3371H45.7875V90.4619L45.76 90.4894ZM104.225 46.0994H87.945V38.7379C87.945 34.7124 87.1475 31.7899 85.58 29.9701C84.0125 28.178 82.17 27.2681 80.08 27.2681C76.7525 27.2681 74.47 28.1229 73.26 29.8323C72.0225 31.5417 71.4175 34.2161 71.4175 37.8004V86.0229C71.4175 89.6347 72.0225 92.2816 73.26 93.991C74.4975 95.7004 76.7525 96.5551 80.08 96.5551C83.05 96.5551 85.1125 95.728 86.24 94.0461C87.3675 92.3643 87.945 90.0207 87.945 86.9327V75.463H104.225V86.4088C104.225 89.745 103.73 92.9157 102.712 95.8934C101.695 98.8711 100.21 101.463 98.2575 103.669C96.2775 105.874 93.775 107.611 90.695 108.88C87.6425 110.148 84.095 110.782 80.0525 110.782C75.7625 110.782 72.0775 110.148 68.97 108.88C65.8625 107.611 63.2775 105.874 61.215 103.669C59.1525 101.49 57.64 98.8987 56.6225 95.8934C55.605 92.9157 55.11 89.745 55.11 86.4088V37.4144C55.11 34.0783 55.605 30.9076 56.6225 27.9299C57.64 24.9521 59.1525 22.3604 61.215 20.1547C63.2775 17.949 65.8625 16.2396 68.97 14.9437C72.0775 13.6754 75.7625 13.0413 80.0525 13.0413C84.0675 13.0413 87.615 13.7306 90.695 15.1367C93.7475 16.5429 96.2775 18.4177 98.2575 20.7889C100.237 23.16 101.722 25.9171 102.712 29.0879C103.73 32.2586 104.225 35.5947 104.225 39.0963V46.0718V46.0994Z" fill="#DF1E26"/>
<path d="M320.567 144.585C317.817 144.585 316.112 146.073 316.112 150.016V155.916H307.972V150.568C307.972 141.772 312.373 136.727 320.815 136.727C329.258 136.727 333.658 141.745 333.658 150.568C333.658 167.855 316.497 174.307 316.497 183.322C316.497 183.708 316.498 184.094 316.58 184.508H332.86V192.366H307.945V185.611C307.945 169.426 325.023 166.752 325.023 150.871C325.023 145.908 323.29 144.585 320.567 144.585Z" fill="#DF1E26"/>
<path d="M342.732 150.568C342.732 141.772 347.352 136.727 355.822 136.727C364.292 136.727 368.912 141.745 368.912 150.568V179.159C368.912 187.954 364.292 193 355.822 193C347.352 193 342.732 187.982 342.732 179.159V150.568ZM351.34 179.711C351.34 183.626 353.073 185.142 355.795 185.142C358.518 185.142 360.25 183.653 360.25 179.711V150.016C360.25 146.101 358.518 144.585 355.795 144.585C353.073 144.585 351.34 146.073 351.34 150.016V179.711Z" fill="#DF1E26"/>
<path d="M391.517 144.585C388.767 144.585 387.063 146.073 387.063 150.016V155.916H378.922V150.568C378.922 141.772 383.323 136.727 391.765 136.727C400.208 136.727 404.608 141.745 404.608 150.568C404.608 167.855 387.448 174.307 387.448 183.322C387.448 183.708 387.447 184.094 387.53 184.508H403.81V192.366H378.922V185.611C378.922 169.426 396 166.752 396 150.871C396 145.908 394.268 144.585 391.545 144.585H391.517Z" fill="#DF1E26"/>
<path d="M413.848 151.036C413.848 141.772 418.083 136.727 426.993 136.727C435.463 136.727 439.835 141.745 439.835 150.568V151.974H431.695V150.016C431.695 146.101 429.963 144.585 427.24 144.585C424.188 144.585 422.455 146.073 422.455 151.34V161.403C423.94 158.26 426.608 156.523 430.43 156.523C436.783 156.523 439.973 160.99 439.973 169.096V179.159C439.973 187.954 435.352 193 426.882 193C418.412 193 413.793 187.982 413.793 179.159V151.036H413.848ZM422.455 169.812V179.711C422.455 183.626 424.188 185.059 426.91 185.059C429.633 185.059 431.365 183.653 431.365 179.711V169.812C431.365 165.897 429.633 164.381 426.91 164.381C424.188 164.381 422.455 165.87 422.455 169.812Z" fill="#DF1E26"/>
</g>
<defs>
<clipPath id="clip0_4015_118">
<rect width="440" height="193" fill="white"/>
</clipPath>
</defs>
</svg>
